<?xml version="1.0" encoding="iso-8859-1"?>
<!-- Generator: Adobe Illustrator 21.0.1, SVG Export Plug-In . SVG Version: 6.00 Build 0)  -->
<svg version="1.1"  xmlns="http://www.w3.org/2000/svg" xmlns:xlink="http://www.w3.org/1999/xlink" x="0px" y="0px"
	 viewBox="0 0 48 48" style="enable-background:new 0 0 48 48;" xml:space="preserve">
<circle style="fill:#FFB74D;" cx="24" cy="40" r="3"/>
<path style="fill:#FFC878;" d="M0,41V8h20c2.209,0,4,1.79,4,4v29H0z"/>
<path style="fill:#FFB74D;" d="M24,41V12c0-2.21,1.791-4,4-4h20v33H24z"/>
<rect x="29" y="16" style="fill:#EF6C00;" width="10" height="2"/>
<rect x="41" y="16" style="fill:#EF6C00;" width="2" height="2"/>
<rect x="29" y="21" style="fill:#EF6C00;" width="8" height="2"/>
<rect x="41" y="21" style="fill:#EF6C00;" width="2" height="2"/>
<rect x="29" y="26" style="fill:#EF6C00;" width="10" height="2"/>
<rect x="41" y="26" style="fill:#EF6C00;" width="2" height="2"/>
<rect x="29" y="31" style="fill:#EF6C00;" width="8" height="2"/>
<rect x="41" y="31" style="fill:#EF6C00;" width="2" height="2"/>
<g>
	<path style="fill:#FB8C00;" d="M9.988,22.797l-1.191,1.191l7.765,7.765c0.329,0.329,0.862,0.329,1.191,0l0,0
		c0.329-0.329,0.329-0.862,0-1.191L9.988,22.797z"/>
	<path style="fill:#FB8C00;" d="M8.674,26.246l2.382-2.382l-5.831-5.831l-0.368,0.368c-1.112,1.112-1.112,2.916,0,4.029
		L8.674,26.246z"/>
</g>
<g>
	<path style="fill:#EF6C00;" d="M14.949,24.242l-1.191-1.191l-7.511,7.511c-0.329,0.329-0.329,0.862,0,1.191l0,0
		c0.329,0.329,0.862,0.329,1.191,0L14.949,24.242z"/>
	
		<ellipse transform="matrix(0.7071 -0.7071 0.7071 0.7071 -10.3701 17.9645)" style="fill:#EF6C00;" cx="16.5" cy="21.5" rx="3.865" ry="3.092"/>
</g>
</svg>
