<?xml version="1.0" encoding="utf-8"?>
<!-- Generator: Adobe Illustrator 19.1.1, SVG Export Plug-In . SVG Version: 6.00 Build 0)  -->
<svg version="1.1"  xmlns="http://www.w3.org/2000/svg" xmlns:xlink="http://www.w3.org/1999/xlink" x="0px" y="0px"
	 viewBox="0 0 48 48" enable-background="new 0 0 48 48" xml:space="preserve">
<path fill="#64B5F6" d="M45,35c0,2.2-1.8,4-4,4H7c-2.2,0-4-1.8-4-4V13c0-2.2,1.8-4,4-4h34c2.2,0,4,1.8,4,4V35z"/>
<path fill="#0D47A1" d="M23.8,22.4l1.9,1.9L15.3,35.6c-0.6,0.6-1.4,0.6-2,0.1l-0.9-0.9c-0.5-0.5-0.5-1.4,0.1-2L23.8,22.4z
	 M26.5,24.3l-2.1,2.1l8.4,9.2c0.6,0.6,1.5,0.5,2.2-0.2l0.5-0.5c0.7-0.7,0.7-1.6,0.2-2.2L26.5,24.3z"/>
<g>
	<polygon fill="#E0F7FA" points="32.2,12.9 25.9,19.3 26.6,20 32.9,13.6 34.3,15.1 28,21.4 28.7,22.1 35.1,15.8 36,16.7 29.4,24.3 
		25.9,24 24,22.1 23.7,18.6 31.3,12 	"/>
	<path fill="#E0F7FA" d="M26.5,24.3l-2.1,2.1L11,13.1C12,12,19.8,12.4,26.5,24.3z"/>
</g>
<path fill="#80DEEA" d="M28.3,23.4c-1.2-2.1-2.5-3.9-3.7-5.5l-0.8,0.7l0.1,1.7c0.8,1.1,1.7,2.3,2.5,3.7l2.4,0.2L28.3,23.4z"/>
</svg>
